<svg id="Capa_1" data-name="Capa 1" xmlns="http://www.w3.org/2000/svg" viewBox="0 0 2448.44 1911.96"><defs><style>.cls-1{fill:#f50257;}</style></defs><title>LogoSquare</title><text x="-239" y="-44.49"/><path class="cls-1" d="M491,819.32l401.21,401.2.06-.06a152.73,152.73,0,1,0,208.8-222.55L709,605.81l.13-.13A152.73,152.73,0,1,1,976.86,502H977c0,1.1-.09,2.19-.09,3.29a146.68,146.68,0,0,0,293.36,0c0-.42,0-.82,0-1.24,0-1.45,0-2.91,0-4.37,0-249.71-205.48-455.19-455.19-455.19S359.91,250,359.91,499.68A455.36,455.36,0,0,0,491,819.29Z" transform="translate(-239 -44.49)"/><path class="cls-1" d="M1716.41,1044a152.75,152.75,0,0,0-216,0c-2.19,2.19-4.26,4.43-6.29,6.71l-493,493.06L507.37,1050c-2.25-2.58-4.57-5.12-7-7.57s-5-4.78-7.57-7l-1.16-1.15-.08.08A153.07,153.07,0,0,0,283.84,1259c3.43,3.43,7,6.65,10.67,9.69l591.1,591.1c2.72,3.22,5.56,6.37,8.6,9.41a151,151,0,0,0,213.55,0c2.67-2.67,5.18-5.44,7.61-8.26l599.07-599.07c.65-.63,1.32-1.23,2-1.87A152.75,152.75,0,0,0,1716.41,1044Z" transform="translate(-239 -44.49)"/></svg>